<?xml version="1.0" standalone="no"?>
<!DOCTYPE svg PUBLIC "-//W3C//DTD SVG 1.1//EN" "http://www.w3.org/Graphics/SVG/1.1/DTD/svg11.dtd" >
<!--
2013-9-30: Created.
-->
<svg>
<metadata>
Created by iconfont
</metadata>
<defs>

<font id="iconfont" horiz-adv-x="1024" >
  <font-face
    font-family="iconfont"
    font-weight="500"
    font-stretch="normal"
    units-per-em="1024"
    ascent="896"
    descent="-128"
  />
    <missing-glyph />
    
    <glyph glyph-name="bingshi" unicode="&#58891;" d="M507.08307 808.575831c41.623888 0 79.432564-17.134447 106.652498-44.350982 19.025051-19.310682 33.180777-43.521292 40.53577-70.741227l122.171772 0c12.785378 0 23.125893-10.333714 23.125893-22.847063l0-1.088117 0-20.143772 105.564381 0c20.674229 0 38.087506-17.134447 38.087506-38.641766l0-1.088117 0-783.587281c0-20.953059-17.413277-38.087506-38.087506-38.087506l-1.084717 0L109.284382-212c-20.953059 0-38.087506 17.134447-38.087506 38.087506l0 1.088117L71.196876 610.762904c0 21.507319 17.134447 38.641766 38.087506 38.641766l1.088117 0 104.228037 0 0 21.228489c0 12.513349 10.337114 22.847063 23.37412 22.847063l0.55766 0 122.447201 0c6.518503 27.219935 20.674229 51.430545 39.70268 70.741227C427.905534 791.441384 465.98964 808.575831 507.08307 808.575831L507.08307 808.575831zM605.850118 693.483622 605.850118 693.483622c-5.460989 14.152326-13.873496 27.219935-24.76827 38.087506-18.776824 19.055654-45.163669 31.038546-73.998778 31.038546-28.586882 0-55.249157-11.979492-73.747151-31.038546-11.143001-10.864171-19.586112-23.93178-24.48944-38.087506l98.236591 0L605.850118 693.483622 605.850118 693.483622zM799.569004 572.678798 799.569004 572.678798l0-21.228489c0-12.509949-10.337114-22.847063-23.125893-22.847063l-0.55766 0-268.805781 0L237.974657 528.603246c-13.040406 0-23.37412 10.337114-23.37412 22.847063l0 0.55766 0 20.674229L147.650719 572.682199l0-707.946125L866.488218-135.263927 866.488218 572.678798 799.569004 572.678798 799.569004 572.678798zM507.08307 647.510666 507.08307 647.510666 260.570093 647.510666l0-36.747762 0-36.162899 246.512977 0 246.764604 0L753.847674 610.762904 753.847674 647.510666 507.08307 647.510666 507.08307 647.510666zM634.127567 222.243817 545.697633 222.243817l0 88.681561c0 21.228489-17.413277 38.641766-38.641766 38.641766-21.201286 0-38.335733-17.413277-38.335733-38.641766l0-88.681561-88.708764 0c-21.228489 0-37.808676-16.88282-37.808676-38.114709 0-21.201286 16.576787-38.611163 37.808676-38.611163l88.708764 0 0-88.433334c0-20.953059 17.134447-38.362936 38.335733-38.362936 21.228489 0 38.641766 17.413277 38.641766 38.362936l0 88.433334 88.429934 0c20.953059 0 38.087506 17.409877 38.087506 38.611163C672.215073 205.357596 655.080626 222.243817 634.127567 222.243817L634.127567 222.243817z"  horiz-adv-x="1024" />

    
    <glyph glyph-name="baojifuben" unicode="&#58908;" d="M949.947323 155.017002c0 0-28.234856 37.752439-65.16125 74.680038-35.339327 35.339327-79.43883 69.923654-79.43883 69.923654-50.821055 50.818646-133.217271 50.818646-184.038326 0 0 0-45.142294-35.62471-81.025896-71.510721-36.413427-36.413427-63.575387-73.092971-63.575387-73.092971-50.818646-50.821055-50.818646-133.219679 0-184.040734 0 0 37.756052-47.276044 74.680038-84.203642 35.339327-35.339327 69.921246-60.401254 69.921246-60.401254 50.821055-50.821055 133.217271-50.821055 184.038326 0 0 0 34.581918 25.060722 69.917633 60.401254 36.927598 36.926394 74.682446 84.203642 74.682446 84.203642C1000.76597 21.797322 1000.76597 104.192334 949.947323 155.017002zM887.519489 35.374088c0-10.517026-7.81251-18.318699-18.327128-18.318699l-109.951933 0 0-100.734182c0-10.517026-7.810102-27.473834-18.323516-27.473834l-54.976569 0c-10.514618 0-18.32472 7.798061-18.32472 18.313883l0 109.896542-109.951933 0c-10.517026 0-18.325924 7.798061-18.325924 18.315087l0 54.945261c0 10.517026 7.810102 18.317495 18.325924 18.317495l109.949525 0 0 109.89293c0 10.517026 7.810102 18.315087 18.327128 18.315087l54.97416 0c10.517026 0 18.325924-7.798061 18.325924-18.315087l0-109.89293 109.951933 0c10.514618 0 18.32472-7.800469 18.32472-18.317495l0.002408 0L887.519489 35.374088zM503.623948-166.679492 147.829604-166.679492c-36.966131 0-67.136052 30.171125-67.136052 67.130031L80.693551 641.91293c0 37.16602 30.169921 67.136052 67.136052 67.136052l81.914557 0c12.39068 0 22.38029 9.98961 22.38029 22.375473 0 12.39068-9.98961 22.38029-22.38029 22.38029l-81.914557 0c-61.74147 0-111.890611-50.151549-111.890611-111.890611l0-741.262502c0-61.734246 50.150344-111.88459 111.890611-111.88459l401.348457 0C532.793223-197.648967 517.60892-182.863238 503.623948-166.679492zM723.651841 709.047778l81.11982 0c36.964927 0 67.134848-30.169921 67.134848-67.136052L871.906509 360.649308c15.585284-7.59456 30.570902-30.634722 44.755763-40.225759L916.662272 641.91293l-0.001204 0c0 61.740266-50.150344 111.890611-111.889407 111.890611l-81.11982 0c-12.384659 0-22.375473-9.98961-22.375473-22.38029C701.276368 719.039796 711.265978 709.047778 723.651841 709.047778zM206.369245 572.782809c0-27.776076 22.375473-50.151549 50.151549-50.151549L696.081675 522.63126c27.570166 0 50.150344 22.375473 50.150344 50.151549-0.001204 27.770055-22.381494 50.150344-50.150344 50.150344l-85.91594 0L610.165735 731.823028c0 44.154893-35.765596 79.920489-79.920489 79.920489L422.354814 811.743517c-44.159709 0-79.920489-35.765596-79.920489-79.920489l0-108.889875-85.913532 0C228.744718 622.933153 206.369245 600.552864 206.369245 572.782809zM476.300632 766.78907c29.169274 0 52.945171-23.774693 52.945171-52.945171-0.001204-29.176499-23.775897-52.951192-52.945171-52.951192-29.170479 0-52.951192 23.774693-52.951192 52.951192C423.34944 743.013173 447.12895 766.78907 476.300632 766.78907zM206.369245 370.782212c0-27.770055 22.375473-50.150344 50.151549-50.150344l267.657956 0c48.350144 49.150902 93.431026 84.515516 162.962128 100.300689L256.520794 420.932556C228.744718 420.932556 206.369245 398.557083 206.369245 370.782212z"  horiz-adv-x="1024" />

    
    <glyph glyph-name="jinzhi" unicode="&#58929;" d="M122.982474 386.320858c0 214.275201 173.700087 387.985522 387.993708 387.985522 214.276225 0 387.995755-173.71032 387.995755-387.985522 0-214.275201-173.720553-387.984499-387.995755-387.984499C296.682561-1.66364 122.982474 172.04668 122.982474 386.320858L122.982474 386.320858zM63.30121 386.320858c0-247.239987 200.415542-447.674972 447.674972-447.674972 247.239987 0 447.674972 200.433962 447.674972 447.674972S758.216169 833.995831 510.976182 833.995831C263.716752 833.995831 63.30121 633.561869 63.30121 386.320858L63.30121 386.320858zM272.219403 401.241686c-16.483416 0-29.840632-13.357216-29.840632-29.849842 0-16.473183 13.357216-29.839609 29.840632-29.839609l477.514581 0c16.48137 0 29.839609 13.366426 29.839609 29.839609 0 16.492626-13.358239 29.849842-29.839609 29.849842L272.219403 401.241686 272.219403 401.241686zM272.219403 401.241686"  horiz-adv-x="1024" />

    
    <glyph glyph-name="huizhen" unicode="&#58923;" d="M691.772386 337.119273c305.107953-115.464755 77.741595-286.71914-176.385243-286.71914-265.529539 0-465.712791 177.228447-176.387289 286.71914 0-89.218998 32.385595-171.360809 127.161145-172.231643 0.917906-52.522214 97.526197-52.522214 98.450243 0C659.386792 165.758464 691.772386 247.900276 691.772386 337.119273L691.772386 337.119273zM479.762785 627.790422l25.130354 0 0 27.013237c0 14.914688 20.977777 14.914688 20.977777 0l0-27.013237 25.131377 0c13.868869 0 13.868869-22.538319 0-22.538319L525.870916 605.252103l0-27.006074c0-14.905478-20.977777-14.905478-20.977777 0l0 27.006074-25.130354 0C465.892893 605.252103 465.892893 627.790422 479.762785 627.790422L479.762785 627.790422zM684.969447 697.097928c49.532113-1.523703 97.016591-19.911492 97.016591-55.177694 0-18.322297-10.996448-35.662221-10.996448-79.235622l0-0.394996c29.977755-2.145873 23.861454-53.995775-5.870708-47.021943-9.422603-36.599569-29.407774-65.669652-54.57292-79.305207 28.145014-2.266623 54.518684-7.438413 78.102822-14.96483l11.726066-4.009314c58.289568-21.389146 96.637967-57.697073 96.637967-98.879008 0-23.024389-12.007475-44.51075-32.757055-62.727647-17.069771 38.879496-60.627822 72.15639-119.715569 93.844342l-15.477506 5.29254c-31.133068 9.928117-65.983807 16.767895-103.122659 19.765159 33.219589 18.006096 59.616796 56.394405 72.049966 104.71697 39.279608-9.213849 47.344285 59.251475 7.770987 62.101383l0 0.51984c0 57.537438 14.513552 80.433914 14.513552 104.636129C720.273511 668.114826 706.426131 685.05566 684.969447 697.097928L684.969447 697.097928zM164.402327 260.832819c-52.940746 48.235584-49.755194 113.914446 65.25726 156.127873l11.719926 4.009314c23.5166 7.492648 49.822732 12.684904 77.867462 14.95869-25.15082 13.622252-45.162596 42.668799-54.579059 79.265298-29.492708-6.541997-35.500539 44.563962-5.888104 47.062875l-0.007163 0.405229c0 43.563168-10.996448 60.916395-10.996448 79.230506 0 35.376719 47.796586 53.781904 97.492428 55.205323-21.452591-12.048407-35.316344-28.995381-35.316344-50.867528 0-24.203238 14.506389-47.099714 14.506389-104.629989l0.013303-0.546446c-39.098483-3.303232-31.18014-70.787206 7.77508-62.142316 12.44238-48.321542 38.85289-86.689385 72.062246-104.669898-37.034475-3.01159-71.777767-9.850345-102.814644-19.751856l-15.477506-5.285377C218.22107 324.324876 179.901323 293.259346 164.402327 260.832819L164.402327 260.832819zM621.983927 354.808144c-18.596544 3.677762-38.030152 6.40999-58.049091 8.065699l-8.270361 0.693802 7.245008 4.03899c17.819854 9.94756 33.849946 25.592888 47.093575 45.445028 13.311167 19.938098 23.821545 44.145429 30.556946 71.13206l0.61296 2.431376 2.431376-0.590448c12.663414-3.057639 22.092158 2.227738 27.672246 10.869558 2.923586 4.535293 4.846378 9.994632 5.67014 15.692401 0.823761 5.711072 0.556679 11.652388-0.884137 17.105586-2.960425 11.190877-10.989285 20.418029-24.738427 21.436218l-2.375094 0.177032 0.026606 2.367931 0.007163 0.565888-0.007163 0c0 39.657208 5.886057 64.828494 10.510378 84.620259 2.937912 12.600993 5.372358 23.003923 5.372358 33.450856 0 38.120203-38.015825 62.653969-86.657662 73.476455-19.149129 4.264117-39.978527 6.39771-60.808948 6.39771-20.836561 0-41.663912-2.133593-60.813041-6.39771-48.63979-10.821463-86.656639-35.356252-86.656639-73.476455 0-10.446933 2.431376-20.849864 5.372358-33.450856 4.625344-19.791765 10.510378-44.962028 10.510378-84.620259l-0.00614 0 0.00614-0.600681 0.027629-2.340301-2.335185-0.203638c-13.736862-1.193175-21.707394-10.598382-24.551162-21.894659-1.342578-5.320169-1.577938-11.076266-0.773619-16.620539 0.803295-5.54018 2.64627-10.852162 5.425569-15.281031 5.513574-8.782014 14.917758-14.248516 27.626197-11.340279l2.418073 0.558725 0.599657-2.415003c6.742565-26.979468 17.260106-51.179636 30.577413-71.112618 13.250792-19.837814 29.284977-35.470863 47.096644-45.412282l7.248078-4.040013-8.272407-0.692778c-19.962657-1.661849-39.325657-4.394077-57.861826-8.065699-18.287505-3.614317-35.814694-8.162914-52.361555-13.521968 0.144286-39.597857 5.090948-78.434373 20.967544-107.385752 15.936971-29.05678 43.084261-48.248887 87.802742-48.248887l2.363837 0c4.009314 6.327102 9.475815 11.354606 15.792685 15.059997 8.876158 5.198395 19.446911 7.810896 29.977755 7.810896 10.530844 0 21.095457-2.605338 29.977755-7.810896 6.303566-3.705392 11.777231-8.731872 15.782451-15.059997l2.367931 0c44.719504 0 71.865771 19.192108 87.802742 48.248887 15.875572 28.952402 20.830421 67.791989 20.974707 107.385752C657.899928 346.631928 640.324644 351.186663 621.983927 354.808144L621.983927 354.808144zM515.387144 706.155211c46.048779 0 83.385129-40.133046 83.385129-89.62525s-37.33635-89.613994-83.385129-89.613994c-46.053895 0-83.388199 40.121789-83.388199 89.613994S469.333248 706.155211 515.387144 706.155211L515.387144 706.155211zM515.387144 706.155211"  horiz-adv-x="1024" />

    
    <glyph glyph-name="yiwancheng1" unicode="&#58903;" d="M511.981 863.046c-264.292 0-478.543-214.25-478.543-478.543 0-264.29 214.25-478.539 478.543-478.539s478.543 214.25 478.543 478.539c0 264.292-214.251 478.543-478.543 478.543zM511.981-30.233c-229.053 0-414.737 185.684-414.737 414.737s185.684 414.737 414.737 414.737 414.737-185.684 414.737-414.737-185.684-414.737-414.737-414.737zM721.618 545.15l-315.823-315.823-135.353 135.354c-12.458 12.458-32.659 12.458-45.117 0s-12.458-32.659 0-45.117l157.912-157.912c12.458-12.458 32.659-12.458 45.117 0l338.381 338.381c12.458 12.458 12.458 32.659 0 45.117-12.459 12.461-32.659 12.461-45.117 0z"  horiz-adv-x="1024" />

    
    <glyph glyph-name="zuoyoujiantouicon-defuben" unicode="&#59032;" d="M419.75589 896c-11.346578 0-22.672155-4.525731-31.335097-13.53819-17.307882-18.044419-17.307882-47.29141 0-65.314828l406.916735-424.140613c4.792744-5.017756 4.792744-12.984662-0.061503-18.042919l-406.835731-424.121112c-17.327383-18.044419-17.327383-47.29141 0-65.314829s45.345811-18.042919 62.692694 0l406.916736 424.163114c39.201498 40.982088 39.201498 107.648485 0.061503 148.630574L451.111987 882.484311c-8.683943 8.989958-20.030521 13.515689-31.356097 13.515689z"  horiz-adv-x="1262" />

    
    <glyph glyph-name="zuoyoujiantouicon-defuben1" unicode="&#59033;" d="M843.145477-128c11.346605 0 22.672209 4.525741 31.335172 13.538222 17.307923 18.044463 17.307923 47.291523 0 65.314984L467.562942 374.994832c-4.792756 5.017768-4.792756 12.984693 0.061503 18.042963L874.461148 817.159919c17.327424 18.044463 17.327424 47.291523 0 65.314985-17.327424 18.023461-45.345919 18.042962-62.692844 0L404.850597 458.310777c-39.201591-40.982186-39.201591-107.648742-0.061504-148.630929l407.000212-424.164127c8.683963-8.98998 20.030569-13.515721 31.356172-13.515721z"  horiz-adv-x="1262" />

    
    <glyph glyph-name="tingzhi" unicode="&#58986;" d="M284.842667 793.6a80.213333 80.213333 0 0 0 80.0768-80.145067v-634.0608a80.213333 80.213333 0 0 0-80.0768-80.145066A80.213333 80.213333 0 0 0 204.8 79.394133V713.454933A80.213333 80.213333 0 0 0 284.842667 793.6z m451.003733 0a80.213333 80.213333 0 0 0 80.042667-80.145067v-634.0608a80.213333 80.213333 0 0 0-80.042667-80.145066 80.213333 80.213333 0 0 0-80.0768 80.145066V713.454933A80.213333 80.213333 0 0 0 735.8464 793.6z"  horiz-adv-x="1024" />

    
    <glyph glyph-name="xianweijing_microscope" unicode="&#58911;" d="M877.013333 749.792C829.162667 801.152 768.266667 835.84 695.712 854.410667v23.253333H236.565333v-26.826667H41.717333V665.706667h191.338667l-72.842667-58.954667a72.437333 72.437333 0 1 1 91.168-112.586667l78.528 63.573334a173.386667 173.386667 0 0 1 84.629334-30.677334v-175.136a72.437333 72.437333 0 0 1 144.885333 0V527.061333c67.477333 5.802667 123.936 49.984 147.488 110.613334a382.133333 382.133333 0 0 0 27.904-18.634667c36.352-26.773333 59.488-88.138667 54.186667-160.277333 0-79.776-27.253333-160.085333-59.872-227.690667h-402.986667v-96.586667h348.714667c-30.464-47.466667-55.114667-76.981333-55.114667-76.981333H92.693333v-167.189333h889.216V449.130667c1.568 31.392 3.168 184.629333-104.896 300.661333z"  horiz-adv-x="1024" />

    
    <glyph glyph-name="zhidi" unicode="&#59088;" d="M784 112h-544v83.2h544v-83.2z m0 544h-544l272-416 272 416z"  horiz-adv-x="1024" />

    
    <glyph glyph-name="cha" unicode="&#59672;" d="M604.1 383.8l337.1 337.1c25.1 25.1 25.1 66.8 0 91.9-25.1 25.1-66.8 25.1-91.9 0L512.2 475.7l-337 337.5c-25.1 25.1-66.8 25.1-91.9 0-25.1-25.1-25.1-66.8 0-91.9l337.1-337.5L82.8 46.7c-25.1-25.1-25.1-66.8 0-91.9 25.1-25.1 66.8-25.1 91.9 0l337.1 337.1 337.1-337.1c25.1-25.1 66.8-25.1 91.9 0 25.1 25.1 25.1 66.8 0 91.9L604.1 383.8z m0 0"  horiz-adv-x="1024" />

    
    <glyph glyph-name="xiangqing" unicode="&#59070;" d="M854.1 121l-84.7 68.8c7.9 21.2 13.2 42.4 13.2 66.2 0 87.4-71.5 156.2-156.2 156.2-84.7-2.6-156.2-71.5-156.2-158.8s71.5-156.2 156.2-156.2c31.8 0 58.2 7.9 84.7 23.8l2.6-2.6 84.7-68.8c15.9-13.2 37.1-10.6 50.3 5.3l10.6 15.9c13.4 15.7 10.7 36.9-5.2 50.2z m-227.6 21.1c-60.9 0-111.2 50.3-111.2 111.2s50.3 111.2 111.2 111.2c60.9 0 111.2-50.3 111.2-111.2 2.6-60.9-47.7-111.2-111.2-111.2zM528.7 80H214.3V686.3h555.1v-280.7h59.1V690.3c0 30.5-24.7 55.2-55.2 55.2h-563c-30.5 0-55.2-24.7-55.2-55.2V76c0-30.5 24.7-55.2 55.2-55.2h318.3l0.1 59.2c0-0.1 0 0 0 0zM312.7 421.3c-21.3 0-38.6-17.6-38.1-39 0.5-20.8 18-37.3 38.9-37.3h96.9c20.8 0 38.4 16.4 38.9 37.3 0.5 21.4-16.8 39-38.1 39h-98.5z m396.5 116.3c-0.5 20.8-18 37.3-38.9 37.3H313.5c-20.8 0-38.4-16.4-38.9-37.3-0.5-21.4 16.8-39 38.1-39h358.4c21.3 0 38.6 17.6 38.1 39z"  horiz-adv-x="1024" />

    
    <glyph glyph-name="tijian" unicode="&#58906;" d="M327.68 713.7280000000001c0 50.688 41.472 92.16 92.16 92.16s92.16-41.472 92.16-92.16-41.472-92.16-92.16-92.16-92.16 40.96-92.16 92.16z m506.88 126.976c-18.944 0-34.816-15.36-34.816-34.816v-46.08c0-18.944 15.36-34.816 34.816-34.816s34.816 15.36 34.816 34.816v46.08c0 18.944-15.36 34.816-34.816 34.816z m34.816-264.192v-601.088c0-18.944-15.36-34.816-34.816-34.816h-645.12c-18.944 0-34.816 15.36-34.816 34.816 0 18.944 15.36 34.816 34.816 34.816h138.24v503.808c-100.864 44.032-173.056 157.696-173.056 291.328 0 18.944 15.36 34.816 34.816 34.816 18.944 0 34.816-15.36 34.816-34.816 0-109.056 58.88-200.192 139.264-230.4h113.152c80.384 30.208 139.264 121.344 139.264 230.4 0 18.944 15.36 34.816 34.816 34.816s34.816-15.36 34.816-34.816c0-133.632-72.192-247.296-173.056-291.328v-503.808h288.256V576.512c0 18.944 15.36 34.816 34.816 34.816 18.432 0 33.792-15.36 33.792-34.816z m-472.576-566.272h46.08v288.256h-46.08v-288.256z m345.6 311.296c18.944 0 34.816 15.36 34.816 34.816v138.24c0 18.944-15.36 34.816-34.816 34.816s-34.816-15.36-34.816-34.816v-138.24c0.512-18.944 15.872-34.816 34.816-34.816z"  horiz-adv-x="1024" />

    
    <glyph glyph-name="shoushudao" unicode="&#58942;" d="M955.112727 824.32a74.938182 74.938182 0 0 1-108.916363 0l-252.276364-264.378182 13.498182-13.498182L51.665455-11.636364c-14.894545-15.825455 3.723636-40.029091 22.341818-40.029091a455.68 455.68 0 0 1 123.345454 22.807273c83.781818 26.065455 215.04 93.090909 470.109091 359.796364l-24.669091 25.6a82.385455 82.385455 0 0 0-13.498182 13.963636 62.836364 62.836364 0 0 0-13.498181 37.236364c0 42.821818 27.927273 56.785455 84.712727 56.785454a136.843636 136.843636 0 0 0 19.083636 0L955.112727 709.818182a82.850909 82.850909 0 0 1 0 114.501818z"  horiz-adv-x="1024" />

    
    <glyph glyph-name="zhidao" unicode="&#59012;" d="M874.496 12.8v71.68c-10.24 0-18.432-8.704-18.432-19.456V760.32h-645.12c-23.04 0-43.008-17.408-43.008-37.376V48.64H95.744V722.944c0 60.416 51.712 109.568 114.688 109.568h663.552c29.696 0 53.248-23.552 53.248-52.224v-715.264c0.512-28.672-23.04-52.224-52.736-52.224zM874.496-64.512H210.944c-63.488 0-114.688 48.64-114.688 108.032s51.712 108.032 114.688 108.032h663.552c29.696 0 53.248-23.552 53.248-52.224V-12.8c0-13.312-5.12-26.624-14.848-36.352-9.728-9.728-24.064-15.36-38.4-15.36zM210.944 79.36c-23.04 0-43.008-16.384-43.008-35.84s19.456-35.84 43.008-35.84h645.12v71.68h-645.12z m321.024 306.176c-72.192 40.96-163.84 40.96-236.032 0V797.696h236.032v-412.16z"  horiz-adv-x="1024" />

    
    <glyph glyph-name="shanchu" unicode="&#58994;" d="M796.678668 555.34239c-17.876136 0-32.407084-14.177907-32.407084-31.606859v-460.84083c0-16.510022-13.824867-29.91124-30.829146-29.91124H290.50128c-17.004279 0-30.829146 13.401218-30.829146 29.91124V524.983965c0 17.427928-14.555507 31.630395-32.43062 31.630394-17.876136 0-32.43062-14.201443-32.43062-31.630394v-462.08824c0-51.366901 42.934858-93.171006 95.691409-93.171006h442.941158c52.756551 0 95.691409 41.805128 95.69141 93.171006V523.735531c-0.001023 17.427928-14.556531 31.606859-32.456203 31.606859zM639.187751 186.001507V524.512221c0 8.290827-3.25002 16.133446-9.185197 22.068621-6.170536 6.170536-14.414291 9.585309-23.221887 9.585309-17.899672 0-32.454156-14.201443-32.454156-31.630394v-338.535273c0-17.427928 14.555507-31.630395 32.454156-31.630395 17.875113 0.001023 32.407084 14.202467 32.407084 31.631418zM449.406406 186.001507V524.53678c0 17.427928-14.555507 31.630395-32.43062 31.630395s-32.407084-14.201443-32.407084-31.630395v-338.535273c0-17.427928 14.531971-31.630395 32.407084-31.630395s32.43062 14.201443 32.43062 31.630395zM923.106102 679.271934H765.755378v60.669778c0 51.390437-42.605354 93.194542-94.985328 93.194542H353.691461c-52.756551 0-95.691409-41.805128-95.691409-93.194542v-60.669778H100.649328c-17.876136 0-32.43062-14.201443-32.43062-31.630395 0-17.452487 14.555507-31.653931 32.43062-31.653931h822.456774c17.876136 0 32.43062 14.201443 32.43062 31.653931 0 17.428951-14.554484 31.630395-32.43062 31.630395z m-222.236524 0H322.884828v60.669778c0 16.510022 13.824867 29.934776 30.80561 29.934776H670.771073c16.886599 0 30.099529-13.142322 30.099529-29.934776v-60.669778z"  horiz-adv-x="1024" />

    
    <glyph glyph-name="yingxiangke" unicode="&#58900;" d="M505.963102 896c71.558946 0 129.576301-57.954224 129.576301-129.402691 0-71.448467-58.04892-129.386908-129.576301-129.386908a129.576301 129.576301 0 0 0-129.576302 129.670997c0 71.306423 58.1594 129.118602 129.576302 129.118602zM155.096993 504.840554h243.464558c-66.808341-158.569196-93.46539-304.449068-5.271435-390.070436H155.096993V504.840554z m357.636904-237.040982c1.357316 81.454725 4.60856 160.32108 17.32945 227.997472 0 0 15.530217 15.530217 35.574297 2.698848 0 0 30.571169-32.275705 64.519844-174.920115 0 0 20.012515-100.757017-26.26248-151.419614 0.426134-0.126262-49.368413 18.891941-91.161111 95.643409zM492.705599 267.799572c-1.341533 81.454725-4.592778 160.32108-17.313666 227.997472 0 0-15.561782 15.530217-35.574298 2.698848 0 0-30.571169-32.275705-64.519844-174.920115 0 0-20.012515-100.757017 26.246698-151.419614-0.268307-0.126262 49.368413 18.891941 91.16111 95.643409z m104.150306-148.720766l-188.146052-2.698849 89.803795 112.246852 98.342257-109.548003z m254.275736 385.761748H607.682866c66.824124-158.569196 93.46539-304.449068 5.271435-390.070436h238.193123V504.840554zM8.617376 617.071623v-607.398776h174.620244v-137.51502h105.09727v137.51502h35.432253v-137.51502h355.19058v137.51502h40.02503v-137.51502h105.239315v137.51502h191.113207V617.071623H8.617376z m960.616514-561.739307H54.339976V571.159631h914.893914v-515.827315z"  horiz-adv-x="1024" />

    
    <glyph glyph-name="sousuo1" unicode="&#58926;" d="M142.904 416.41c0 185.144 150.073 335.216 335.217 335.216 185.15 0 335.222-150.077 335.222-335.216 0-185.145-150.073-335.222-335.222-335.222-185.144 0-335.217 150.077-335.217 335.222z m582.477-306.14L903.22-67.529l51.538 51.554-177.131 177.177c58.608 68.7 94.008 157.814 94.008 255.201 0 217.334-176.18 393.513-393.518 393.513-217.339 0-393.513-176.179-393.513-393.513 0-217.338 176.18-393.523 393.513-393.523 93.675 0.005 179.696 32.738 247.265 87.388z"  horiz-adv-x="1024" />

    
    <glyph glyph-name="yiyaoxiang" unicode="&#59047;" d="M32.724528 893.101887c0.483019 0 0.966038-0.483019 0.966038-0.966038v-7.245283c0-0.483019-0.483019-0.966038-0.966038-0.966038H21.132075c-0.483019 0-0.966038 0.483019-0.966037 0.966038v7.245283c0 0.483019 0.483019 0.966038 0.966037 0.966038h11.592453m0 0.483019H21.132075c-0.966038 0-1.449057-0.483019-1.449056-1.449057v-7.245283c0-0.966038 0.483019-1.449057 1.449056-1.449057h11.592453c0.483019 0 0.966038 0.966038 0.966038 1.449057v7.245283c0.483019 0.966038-0.483019 1.449057-0.966038 1.449057zM25.479245 888.754717h2.898113v-0.483019l-2.898113 0.483019zM26.445283 890.203774l0.483019-2.898114h-0.483019v2.898114z m1.449057 5.313207c0.483019 0 0.483019 0 0 0l0.483018-1.932075h-3.381132v1.449056c0 0.483019 0 0.483019 0.483019 0.483019h2.415095m0 0.483019h-2.415095c-0.483019 0-0.966038-0.483019-0.966037-0.966038v-1.932075H28.860377v1.932075c0 0.483019-0.483019 0.966038-0.966037 0.966038zM846.128302 648.211321h-191.275472v45.403773c0 46.369811-38.158491 84.528302-84.528302 84.528302H434.113208c-46.369811 0-84.528302-38.158491-84.528302-84.528302v-45.403773H158.309434c-56.513208 0-102.883019-46.369811-102.883019-102.883019v-442.445283c0-56.513208 46.369811-102.883019 102.883019-102.883019h687.818868c56.513208 0 102.883019 46.369811 102.883019 102.883019V545.811321c0 56.513208-46.369811 102.4-102.883019 102.4z m-438.581132 45.403773c0 14.490566 12.075472 26.566038 26.566038 26.566038h136.21132c14.490566 0 26.566038-12.075472 26.566038-26.566038v-45.403773H407.54717v45.403773z m483.501887-590.732075c0-24.633962-20.286792-44.920755-44.920755-44.920755H158.309434c-24.633962 0-44.920755 20.286792-44.920755 44.920755V545.328302c0 24.633962 20.286792 44.920755 44.920755 44.920755h687.818868c24.633962 0 44.920755-19.803774 44.920755-44.437736v-442.928302zM531.2 445.826415H473.237736v-83.562264H389.675472v-57.962264H473.237736v-83.562264h57.962264v83.562264h83.562264v57.962264H531.2z"  horiz-adv-x="1024" />

    
    <glyph glyph-name="goutong" unicode="&#58973;" d="M593.4 419.9c-22.7 0-41.2-18.4-41.2-41.2s18.6-41.2 41.2-41.2 41.2 18.6 41.2 41.2c0.1 22.6-18.3 41.2-41.2 41.2z m367.2 317.3c0 31.7-25.8 57.5-57.5 57.5H283.9c-31.7 0-57.5-25.8-57.5-57.5v-57.6h49.9v65.2h634.6v-406.3h-65.2v-49.9h57.5c31.7 0 57.5 25.8 57.5 57.5l-0.1 391.1z m-530-317.3c-22.7 0-41.2-18.4-41.2-41.2s18.6-41.2 41.2-41.2c22.7 0 41.2 18.6 41.2 41.2s-18.6 41.2-41.2 41.2zM797.7 574.2c0 31.7-25.8 57.5-57.5 57.5H120.9c-31.7 0-57.5-25.8-57.5-57.5V183c0-31.7 25.8-57.5 57.5-57.5h72.8v-152.2l152.2 152.2h394.2c31.7 0 57.5 25.8 57.5 57.5V574.2h0.1z m-53.1-395.6H323.8l-77.1-77.1v77.1H116.4v400h628.3v-400zM267.5 419.9c-22.7 0-41.2-18.4-41.2-41.2s18.6-41.2 41.2-41.2 41.2 18.6 41.2 41.2c0.1 22.6-18.4 41.2-41.2 41.2z"  horiz-adv-x="1024" />

    
    <glyph glyph-name="qita" unicode="&#59606;" d="M426.037895 357.052632c32.471579 0 59.014737-26.543158 59.014737-59.014737v-205.338948c0-32.471579-26.543158-59.014737-59.014737-59.014736H220.698947A59.176421 59.176421 0 0 0 161.684211 92.698947v205.338948C161.684211 330.509474 188.227368 357.052632 220.698947 357.052632h205.338948z m377.263158 0c32.471579 0 59.014737-26.543158 59.014736-59.014737v-205.338948c0-32.471579-26.543158-59.014737-59.014736-59.014736h-205.338948A59.176421 59.176421 0 0 0 538.947368 92.698947v205.338948c0 32.471579 26.543158 59.014737 59.014737 59.014737h205.338948z m-377.263158 377.263157C458.509474 734.315789 485.052632 707.772632 485.052632 675.301053v-205.338948c0-32.471579-26.543158-59.014737-59.014737-59.014737H220.698947A59.176421 59.176421 0 0 0 161.684211 469.962105V675.301053C161.684211 707.772632 188.227368 734.315789 220.698947 734.315789h205.338948z m377.263158-323.368421h-205.338948A59.176421 59.176421 0 0 0 538.947368 469.962105V675.301053C538.947368 707.772632 565.490526 734.315789 597.962105 734.315789h205.338948C835.772632 734.315789 862.315789 707.772632 862.315789 675.301053v-205.338948c0-32.471579-26.543158-59.014737-59.014736-59.014737zM808.421053 646.386526C808.421053 665.114947 793.114947 680.421053 774.386526 680.421053h-147.509894C608.148211 680.421053 592.842105 665.114947 592.842105 646.386526v-147.509894c0-18.728421 15.306105-34.034526 34.034527-34.034527h147.509894c18.728421 0 34.034526 15.306105 34.034527 34.034527V646.386526z"  horiz-adv-x="1024" />

    
    <glyph glyph-name="zhiding" unicode="&#58880;" d="M855.866698 789.573085c0-23.451108-19.010983-42.463114-42.463114-42.463114L203.435319 747.109971c-23.451108 0-42.463114 19.010983-42.463114 42.463114l0 0c0 23.451108 19.010983 42.463114 42.463114 42.463114l609.968266 0C836.855716 832.036199 855.866698 813.025217 855.866698 789.573085L855.866698 789.573085zM511.826038 631.64931c-23.451108 0-42.463114-19.010983-42.463114-42.463114l0-609.968266c0-23.451108 19.010983-42.463114 42.463114-42.463114l0 0c23.451108 0 42.463114 19.010983 42.463114 42.463114L554.289152 589.187219C554.288129 612.638327 535.277146 631.64931 511.826038 631.64931L511.826038 631.64931zM541.961382 662.976806c-16.582677 16.582677-42.517349 17.534352-57.927317 2.124384L171.253362 352.32151c-15.408945-15.408945-14.458293-41.343617 2.124384-57.926294l0 0c16.582677-16.582677 42.517349-17.534352 57.926294-2.124384L544.085766 605.050512C559.494711 620.459456 558.544059 646.394129 541.961382 662.976806L541.961382 662.976806zM481.696834 662.976806c-16.582677-16.582677-17.534352-42.517349-2.124384-57.926294l312.780703-312.780703c15.408945-15.408945 41.343617-14.458293 57.926294 2.124384l0 0c16.582677 16.582677 17.534352 42.517349 2.124384 57.926294L539.623128 665.102213C524.214183 680.511157 498.27951 679.559483 481.696834 662.976806L481.696834 662.976806z"  horiz-adv-x="1024" />

    
    <glyph glyph-name="kaishi" unicode="&#58882;" d="M852.662857 458.24c-163.291429 105.874286-449.28 270.628571-612.571428 370.651429-64.182857 41.142857-122.514286 23.588571-128.365715-46.994286-5.851429-200.045714 0-588.617143 0-794.514286 5.851429-76.434286 70.034286-88.32 128.365715-53.028571 163.291429 100.022857 443.428571 270.811429 606.72 370.834285 0-5.851429 128.365714 64.731429 5.851428 153.051429z m0 0"  horiz-adv-x="1024" />

    
    <glyph glyph-name="sys-log" unicode="&#58881;" d="M568.889-14.22199999999998h-512V782.222h739.555V384h-56.888V725.333H113.778v-682.666H512zM711.111 384c108.089 0 199.111-91.022 199.111-199.111S819.2-14.22199999999998 711.112-14.22199999999998 512 76.79999999999995 512 184.88800000000003 603.022 384 711.111 384m0 56.889c-142.222 0-256-113.778-256-256s113.778-256 256-256 256 113.778 256 256-113.778 256-256 256zM227.556 839.11h56.888v-170.667h-56.888z m341.333 0h56.889v-170.667h-56.89zM170.667 554.6669999999999h512v-56.89h-512z m0-170.667H455.11v-56.889H170.667z m0-170.667h227.555v-56.889H170.667zM853.333 99.55600000000004H682.667V327.11h56.889v-170.667h113.777z"  horiz-adv-x="1024" />

    
    <glyph glyph-name="shalou" unicode="&#58894;" d="M932.864-51.712c8.192-8.192 12.288-17.408 12.288-28.672 0-11.776-4.096-20.992-12.288-28.672-8.192-8.192-17.408-12.288-28.672-12.288H119.296c-11.776 0-20.992 4.096-28.672 12.288-8.192 8.192-12.288 17.408-12.288 28.672 0 11.776 4.096 20.992 12.288 28.672 8.192 8.192 17.408 12.288 28.672 12.288h103.936v247.296L439.808 384 223.232 561.152V807.936H119.296c-11.776 0-20.992 4.096-28.672 12.288-8.192 8.192-12.288 17.408-12.288 28.672 0 11.776 4.096 20.992 12.288 28.672 8.192 8.192 17.408 12.288 28.672 12.288h784.896c11.776 0 20.992-4.096 28.672-12.288 8.192-8.192 12.288-17.408 12.288-28.672 0-11.776-4.096-20.992-12.288-28.672-8.192-8.192-17.408-12.288-28.672-12.288h-103.936v-247.296L584.192 384l216.576-177.152v-247.296h103.936c10.752 0.512 20.48-3.072 28.16-11.264zM509.44 440.32l2.56 2.56 3.584-2.56 204.288 165.888V808.448H304.64v-202.24l204.8-165.888z m209.92-278.528L512 329.728l-207.36-167.936v-202.24h415.232v202.24h-0.512z m0 0M304.64-40.448l207.872 185.344 207.36-185.344z"  horiz-adv-x="1024" />

    


  </font>
</defs>
</svg>
